<?xml version="1.0" encoding="utf-8"?>
<!-- Generator: Adobe Illustrator 18.0.0, SVG Export Plug-In . SVG Version: 6.00 Build 0)  -->
<!DOCTYPE svg PUBLIC "-//W3C//DTD SVG 1.1//EN" "http://www.w3.org/Graphics/SVG/1.1/DTD/svg11.dtd">
<svg version="1.1" id="Layer_2" xmlns="http://www.w3.org/2000/svg" xmlns:xlink="http://www.w3.org/1999/xlink" x="0px" y="0px"
	 viewBox="0 0 289.1 19.8" style="enable-background:new 0 0 289.1 19.8;" xml:space="preserve">
<g>
	<path style="fill:#58595B;" d="M286.7,8.2c0,0-1.1,0-3.2-0.1c-2.1-0.1-5.2-0.3-9.2-0.6c-7.9-0.6-19.1-1.9-32.6-3.2
		c-6.7-0.6-14-1.1-21.8-1.4c-7.7-0.3-15.9-0.5-24.4-0.6c-16.9-0.3-35-0.2-53-0.1c-18,0.1-36.1,0.1-53,0.2c-4.2,0-8.4,0-12.5,0.1
		c-4.1,0.1-8,0.3-11.9,0.5c-7.7,0.4-15.1,0.9-21.8,1.3C30,5.2,18.7,5.9,10.8,6.5c-2,0.1-3.7,0.3-5.3,0.4C4.8,6.9,4.1,7,3.6,7.3
		C3.3,7.4,3,7.6,3,7.8c0,0.2,0.1,0.5,0.3,0.7c0.2,0.2,0.4,0.3,0.6,0.3c0.2,0,0.4,0,0.6,0c0.4,0,0.7,0,1,0c0.5,0,0.8,0,0.8,0l0,0.1
		c0,0-0.3,0-0.8,0c-0.3,0-0.6,0-1,0c-0.2,0-0.4,0-0.7,0c-0.2,0-0.5-0.1-0.7-0.3C3,8.4,2.8,8.2,2.8,7.8c0.1-0.3,0.4-0.5,0.6-0.7
		c0.6-0.3,1.3-0.4,2.1-0.5c1.5-0.2,3.3-0.3,5.2-0.5c7.9-0.7,19.1-1.5,32.6-2.5c6.8-0.5,14.1-1,21.8-1.4c3.9-0.2,7.9-0.4,11.9-0.5
		c4.1-0.1,8.2-0.1,12.5-0.1c16.9-0.1,35-0.3,53-0.4c18-0.1,36.1,0,53,0.3c8.5,0.1,16.6,0.4,24.4,0.7c7.7,0.3,15.1,0.9,21.8,1.5
		c6.7,0.6,12.9,1.4,18.4,2c5.5,0.6,10.2,1.2,14.2,1.5c3.9,0.4,7,0.6,9.1,0.7C285.6,8.1,286.7,8.1,286.7,8.2L286.7,8.2z"/>
</g>
<g>
	<path style="fill:#58595B;" d="M6.2,9.6c0,0-0.3,0-0.8,0c-0.3,0-0.6,0-1,0c-0.2,0-0.4,0-0.7,0c-0.1,0-0.2,0-0.3,0
		c-0.1,0-0.2,0.1-0.3,0.2C3,10.1,2.9,10.3,3,10.5c0.1,0.2,0.4,0.3,0.7,0.4c0.6,0.2,1.3,0.2,2.1,0.3c1.5,0.1,3.3,0.3,5.2,0.4
		c7.9,0.6,19.1,1.2,32.6,2.1c6.7,0.4,14.1,0.9,21.8,1.3c7.7,0.4,15.9,0.7,24.3,0.8c16.9,0.1,34.9-0.2,53-0.4c18-0.1,36.1,0,53,0.4
		c4.2,0.1,8.4,0.2,12.4,0.3c2,0,4,0,6,0c2,0,3.9-0.1,5.9-0.2c7.7-0.4,15-1.1,21.7-1.8c13.4-1.5,24.6-2.9,32.5-3.5
		c3.9-0.3,7-0.4,9.2-0.5c2.1,0,3.2,0,3.2,0l0,0.1c0,0-1.1,0-3.2,0.1c-2.1,0.1-5.2,0.2-9.1,0.6c-3.9,0.4-8.7,0.9-14.1,1.6
		c-5.5,0.7-11.6,1.5-18.3,2.3c-6.7,0.8-14,1.5-21.8,1.9c-1.9,0.1-3.9,0.2-5.9,0.2c-2,0-4,0.1-6,0.1c-4.1,0-8.2-0.1-12.5-0.2
		c-16.9-0.4-34.9-0.3-53-0.1c-18,0.1-36.1,0.4-53,0.2c-8.5-0.1-16.6-0.4-24.4-0.9c-7.7-0.4-15.1-0.9-21.8-1.3
		c-13.5-0.9-24.7-1.8-32.6-2.4c-2-0.2-3.7-0.3-5.2-0.5c-0.8-0.1-1.5-0.1-2.1-0.3C3.4,11,3,10.9,2.8,10.6C2.7,10.3,2.9,10,3.1,9.8
		c0.1-0.1,0.2-0.2,0.3-0.3c0.1-0.1,0.3,0,0.4,0c0.2,0,0.4,0,0.6,0c0.4,0,0.7,0,1,0C6,9.5,6.2,9.5,6.2,9.6L6.2,9.6z"/>
</g>
<path style="fill:#F0D9EA;stroke:#B583A9;stroke-width:0.5271;stroke-miterlimit:10;" d="M12.3,8C8.5,7.9,6.7,7.8,6.5,8.4
	C6.3,9,6.2,9.6,6.2,9.9s4.5,0.9,6,0.5c1.6-0.4,3.8-0.7,5.2-0.4c1.5,0.3,0,0.9,2.7,0.7c2.6-0.2,0.9-1,2.3-0.9
	c2.1,0.1,6.9,1.2,8.2,1.1c1.3-0.1,2.7-0.4,2.7-1.8c0.1-1.9-3.2-2-5.8-1.7c-2,0.3-5.8,1.3-6,0.5c-0.3-0.8-0.4-0.7-2.1-0.6
	c-1.5,0-0.8,1-1.5,0.9C17.3,8.1,12.3,8,12.3,8z"/>
</svg>
